<?xml version="1.0" encoding="utf-8"?>
<!-- Svg Vector Icons : http://www.onlinewebfonts.com/icon -->
<!DOCTYPE svg PUBLIC "-//W3C//DTD SVG 1.1//EN" "http://www.w3.org/Graphics/SVG/1.1/DTD/svg11.dtd">
<svg version="1.1" xmlns="http://www.w3.org/2000/svg" xmlns:xlink="http://www.w3.org/1999/xlink" x="0px" y="0px" viewBox="0 0 1000 1000" enable-background="new 0 0 1000 1000" xml:space="preserve">
<metadata> Svg Vector Icons : http://www.onlinewebfonts.com/icon </metadata>
<g>
  <path fill="#bfb" d="M693.7,223.2c0.2,0.3,0.2,0.6,0.4,0.8h256.5c21.8,0,39.4-17.7,39.4-39.4c0-21.7-17.6-39.4-39.4-39.4H636.4C666.9,171.8,685.7,206,693.7,223.2L693.7,223.2z"/>
  <path fill="#bfb" d="M950.6,460.6H494.3c-6.2,25.6-12.6,52.2-19.1,78.8h475.4c21.8,0,39.4-17.7,39.4-39.4C990,478.3,972.4,460.6,950.6,460.6L950.6,460.6z"/>
  <path fill="#bfb" d="M950.6,775.9H409.3c-14.8,31.3-35.2,58.8-61.5,78.8h602.8c21.8,0,39.4-17.7,39.4-39.4C990,793.6,972.4,775.9,950.6,775.9z"/>
  <path fill="#bfb" d="M454.7,340.4c10-38.9,32.1-27.9,51.3-11.7c41.6,35.2,41.6,35.2,83.6,80.5c13.4,14.5,30.4,15.2,44.8,5.5c17.3-11.7,33.7-80.8-1.5-160.6c-12.4-28.3-54.6-106-135.1-107.7c-27.9-0.6-41.9,17.9-46.2,32.1C417.2,290.9,325.6,632,325.6,632c-16.5-35.9-72.1-74.6-135.6-80.5C88.1,542.1,12.1,605.4,10,697.7c-1.8,83.8,75.4,153.8,172.2,156c89.1,1.9,145.9-60.3,170.5-137.3C375.7,644.1,435.8,413.8,454.7,340.4L454.7,340.4z"/>
</g>
</svg>
